<svg width="25.987305" height="23.973267" viewBox="0 0 25.9873 23.9733" fill="none" xmlns="http://www.w3.org/2000/svg" xmlns:xlink="http://www.w3.org/1999/xlink">
	<desc>
			Created with Pixso.
	</desc>
	<defs/>
	<path id="Vector" d="M21.3154 21.9733C21.3604 21.9619 21.3818 21.9409 21.3994 21.9199C21.4072 21.9108 21.415 21.9016 21.4229 21.8926C21.4595 21.8508 21.4626 21.7623 21.4619 21.7175C21.4487 21.6115 21.3579 21.5386 21.2808 21.5386C21.2769 21.5386 21.2729 21.5387 21.2708 21.5388C21.1926 21.5442 21.1047 21.6479 21.1113 21.7695C21.1206 21.8864 21.207 21.9733 21.2788 21.9733L21.3154 21.9733ZM7.65894 21.9669C7.7583 21.9669 7.83887 21.8726 7.83887 21.7566C7.83887 21.6411 7.7583 21.5471 7.65894 21.5471C7.55981 21.5471 7.47925 21.6411 7.47925 21.7566C7.47925 21.8726 7.55981 21.9669 7.65894 21.9669ZM21.439 23.9733C21.3911 23.9733 21.3271 23.9733 21.2788 23.9733C20.1411 23.9733 19.196 23.0615 19.116 21.905C19.0359 20.7 19.9331 19.6254 21.1348 19.5435C21.1836 19.5402 21.2324 19.5386 21.2808 19.5386C22.4194 19.5386 23.3809 20.4395 23.4585 21.5955C23.49 22.1985 23.3135 22.7682 22.9292 23.2083C22.5449 23.6646 22.0159 23.9247 21.439 23.9733ZM7.65894 23.9669C6.45483 23.9669 5.47925 22.9779 5.47925 21.7566C5.47925 20.5361 6.45483 19.5471 7.65894 19.5471C8.86328 19.5471 9.83887 20.5361 9.83887 21.7566C9.83887 22.9779 8.86328 23.9669 7.65894 23.9669ZM20.6379 17.1008L8.57251 17.1008C8.13965 17.1008 7.75537 16.8075 7.64282 16.3845L3.71704 1.95471L0.961182 1.95471C0.432861 1.95471 0 1.51562 0 0.977417C0 0.440063 0.432861 0 0.961182 0L4.43872 0C4.87085 0 5.25513 0.293335 5.36768 0.717285L9.29346 15.1461L19.9971 15.1461L23.554 6.84082L11.6973 6.84082C11.168 6.84082 10.7351 6.40076 10.7351 5.86353C10.7351 5.32617 11.168 4.88611 11.6973 4.88611L25.0281 4.88611C25.3486 4.88611 25.6536 5.04895 25.8291 5.32617C26.0054 5.60242 26.0378 5.94446 25.9092 6.25403L21.519 16.514C21.3589 16.8723 21.0222 17.1008 20.6379 17.1008Z" fill="#FFFFFF" fill-opacity="1.000000" fill-rule="nonzero"/>
</svg>
